<mxfile host="Electron" modified="2024-02-29T21:57:54.222Z" agent="Mozilla/5.0 (Windows NT 10.0; Win64; x64) AppleWebKit/537.36 (KHTML, like Gecko) draw.io/23.1.5 Chrome/120.0.6099.109 Electron/28.1.0 Safari/537.36" etag="I-flZLIDwW9CbMuZXc2o" version="23.1.5" type="device" pages="3">
  <diagram name="Draft" id="_Ye7duGOrvfjZWhQen6E">
    <mxGraphModel dx="4940" dy="1407" grid="1" gridSize="10" guides="1" tooltips="1" connect="1" arrows="1" fold="1" page="1" pageScale="1" pageWidth="850" pageHeight="1100" math="0" shadow="0">
      <root>
        <mxCell id="0" />
        <mxCell id="1" parent="0" />
        <mxCell id="aYt2k320Q_-oUMQeYSeQ-1" value="" style="rounded=0;whiteSpace=wrap;html=1;" parent="1" vertex="1">
          <mxGeometry x="-2525" y="15" width="800" height="600" as="geometry" />
        </mxCell>
        <mxCell id="aYt2k320Q_-oUMQeYSeQ-2" value="Castle" style="rounded=0;whiteSpace=wrap;html=1;fillColor=#647687;fontColor=#ffffff;strokeColor=#314354;" parent="1" vertex="1">
          <mxGeometry x="-2510" y="505" width="770" height="40" as="geometry" />
        </mxCell>
        <mxCell id="aYt2k320Q_-oUMQeYSeQ-3" value="Player" style="ellipse;whiteSpace=wrap;html=1;aspect=fixed;fillColor=#008a00;fontColor=#ffffff;strokeColor=#005700;" parent="1" vertex="1">
          <mxGeometry x="-2165" y="435" width="80" height="80" as="geometry" />
        </mxCell>
        <mxCell id="aYt2k320Q_-oUMQeYSeQ-4" value="Health Bar" style="rounded=0;whiteSpace=wrap;html=1;fillColor=#e51400;fontColor=#ffffff;strokeColor=#B20000;" parent="1" vertex="1">
          <mxGeometry x="-2285" y="30" width="320" height="40" as="geometry" />
        </mxCell>
        <mxCell id="aYt2k320Q_-oUMQeYSeQ-5" value="Placeable" style="whiteSpace=wrap;html=1;aspect=fixed;fillColor=#0050ef;fontColor=#ffffff;strokeColor=#001DBC;" parent="1" vertex="1">
          <mxGeometry x="-1950" y="275" width="80" height="80" as="geometry" />
        </mxCell>
        <mxCell id="aYt2k320Q_-oUMQeYSeQ-6" value="" style="image;html=1;image=img/lib/atlassian/Jira_Core_Logo.svg;" parent="1" vertex="1">
          <mxGeometry x="-1980" y="340" width="40" height="50" as="geometry" />
        </mxCell>
        <mxCell id="aYt2k320Q_-oUMQeYSeQ-7" value="" style="endArrow=classic;html=1;rounded=0;exitX=1;exitY=0.75;exitDx=0;exitDy=0;strokeWidth=4;" parent="1" source="aYt2k320Q_-oUMQeYSeQ-6" edge="1">
          <mxGeometry width="50" height="50" relative="1" as="geometry">
            <mxPoint x="-1930" y="380" as="sourcePoint" />
            <mxPoint x="-1530" y="370" as="targetPoint" />
          </mxGeometry>
        </mxCell>
        <mxCell id="aYt2k320Q_-oUMQeYSeQ-8" value="Clicked on" style="text;html=1;align=center;verticalAlign=middle;whiteSpace=wrap;rounded=0;" parent="1" vertex="1">
          <mxGeometry x="-1860" y="350" width="60" height="30" as="geometry" />
        </mxCell>
        <mxCell id="aYt2k320Q_-oUMQeYSeQ-9" value="" style="rounded=0;whiteSpace=wrap;html=1;" parent="1" vertex="1">
          <mxGeometry x="-1529" y="15" width="800" height="600" as="geometry" />
        </mxCell>
        <mxCell id="aYt2k320Q_-oUMQeYSeQ-10" value="" style="rounded=0;whiteSpace=wrap;html=1;fillColor=#647687;fontColor=#ffffff;strokeColor=#314354;" parent="1" vertex="1">
          <mxGeometry x="-1515" y="505" width="770" height="40" as="geometry" />
        </mxCell>
        <mxCell id="aYt2k320Q_-oUMQeYSeQ-11" value="Player" style="ellipse;whiteSpace=wrap;html=1;aspect=fixed;fillColor=#008a00;fontColor=#ffffff;strokeColor=#005700;" parent="1" vertex="1">
          <mxGeometry x="-1170" y="435" width="80" height="80" as="geometry" />
        </mxCell>
        <mxCell id="aYt2k320Q_-oUMQeYSeQ-12" value="Health Bar" style="rounded=0;whiteSpace=wrap;html=1;fillColor=#e51400;fontColor=#ffffff;strokeColor=#B20000;" parent="1" vertex="1">
          <mxGeometry x="-1290" y="30" width="320" height="40" as="geometry" />
        </mxCell>
        <mxCell id="aYt2k320Q_-oUMQeYSeQ-13" value="Placeable" style="whiteSpace=wrap;html=1;aspect=fixed;fillColor=#0050ef;fontColor=#ffffff;strokeColor=#A8A7BC;strokeWidth=4;" parent="1" vertex="1">
          <mxGeometry x="-955" y="275" width="80" height="80" as="geometry" />
        </mxCell>
        <mxCell id="aYt2k320Q_-oUMQeYSeQ-14" value="" style="image;html=1;image=img/lib/atlassian/Jira_Core_Logo.svg;" parent="1" vertex="1">
          <mxGeometry x="-985" y="340" width="40" height="50" as="geometry" />
        </mxCell>
        <mxCell id="aYt2k320Q_-oUMQeYSeQ-16" value="" style="endArrow=classic;html=1;rounded=0;strokeWidth=4;entryX=0;entryY=0.184;entryDx=0;entryDy=0;entryPerimeter=0;" parent="1" target="aYt2k320Q_-oUMQeYSeQ-17" edge="1">
          <mxGeometry width="50" height="50" relative="1" as="geometry">
            <mxPoint x="-1700" y="370" as="sourcePoint" />
            <mxPoint x="-1540" y="790" as="targetPoint" />
            <Array as="points">
              <mxPoint x="-1700" y="790" />
            </Array>
          </mxGeometry>
        </mxCell>
        <mxCell id="aYt2k320Q_-oUMQeYSeQ-17" value="" style="rounded=0;whiteSpace=wrap;html=1;" parent="1" vertex="1">
          <mxGeometry x="-1530" y="680" width="800" height="600" as="geometry" />
        </mxCell>
        <mxCell id="aYt2k320Q_-oUMQeYSeQ-18" value="Castle" style="rounded=0;whiteSpace=wrap;html=1;fillColor=#647687;fontColor=#ffffff;strokeColor=#314354;" parent="1" vertex="1">
          <mxGeometry x="-1515" y="1170" width="770" height="40" as="geometry" />
        </mxCell>
        <mxCell id="wKcf45MvlXt7j3aoN5BX-2" value="Placeable" style="whiteSpace=wrap;html=1;aspect=fixed;fillColor=#0050ef;fontColor=#ffffff;strokeColor=#A8A7BC;strokeWidth=4;" parent="1" vertex="1">
          <mxGeometry x="-960" y="940" width="80" height="80" as="geometry" />
        </mxCell>
        <mxCell id="aYt2k320Q_-oUMQeYSeQ-19" value="Player" style="ellipse;whiteSpace=wrap;html=1;aspect=fixed;fillColor=#008a00;fontColor=#ffffff;strokeColor=#005700;" parent="1" vertex="1">
          <mxGeometry x="-1170" y="1100" width="80" height="80" as="geometry" />
        </mxCell>
        <mxCell id="aYt2k320Q_-oUMQeYSeQ-20" value="Health Bar" style="rounded=0;whiteSpace=wrap;html=1;fillColor=#e51400;fontColor=#ffffff;strokeColor=#B20000;" parent="1" vertex="1">
          <mxGeometry x="-1290" y="695" width="320" height="40" as="geometry" />
        </mxCell>
        <mxCell id="aYt2k320Q_-oUMQeYSeQ-22" value="" style="image;html=1;image=img/lib/atlassian/Jira_Core_Logo.svg;" parent="1" vertex="1">
          <mxGeometry x="-985" y="1005" width="40" height="50" as="geometry" />
        </mxCell>
        <mxCell id="8uQmm8RbdF-t_dj4djGj-1" value="" style="shape=loopLimit;whiteSpace=wrap;html=1;rotation=0;fillColor=#fa6800;fontColor=#000000;strokeColor=#C73500;" parent="1" vertex="1">
          <mxGeometry x="-1179.5" y="466.25" width="100" height="47.5" as="geometry" />
        </mxCell>
        <mxCell id="8uQmm8RbdF-t_dj4djGj-2" value="" style="rounded=1;whiteSpace=wrap;html=1;fillColor=#76608a;fontColor=#ffffff;strokeColor=#432D57;opacity=50;rotation=-90;" parent="1" vertex="1">
          <mxGeometry x="-1162.06" y="260.19" width="102" height="600.38" as="geometry" />
        </mxCell>
        <mxCell id="8uQmm8RbdF-t_dj4djGj-4" value="" style="html=1;shadow=0;dashed=0;align=center;verticalAlign=middle;shape=mxgraph.arrows2.arrow;dy=0;dx=30;notch=30;rotation=90;" parent="1" vertex="1">
          <mxGeometry x="-1146.5" y="452.5" width="35" height="80" as="geometry" />
        </mxCell>
        <mxCell id="8uQmm8RbdF-t_dj4djGj-6" value="&lt;font style=&quot;font-size: 16px;&quot;&gt;&lt;b&gt;Placeable&#39;s Name&lt;/b&gt;&lt;/font&gt;" style="text;html=1;align=center;verticalAlign=middle;whiteSpace=wrap;rounded=0;" parent="1" vertex="1">
          <mxGeometry x="-1198.12" y="505" width="138.25" height="30" as="geometry" />
        </mxCell>
        <mxCell id="8uQmm8RbdF-t_dj4djGj-7" value="&lt;font style=&quot;font-size: 14px;&quot;&gt;Stats&lt;/font&gt;" style="text;html=1;align=center;verticalAlign=middle;whiteSpace=wrap;rounded=0;" parent="1" vertex="1">
          <mxGeometry x="-1320" y="520" width="60" height="30" as="geometry" />
        </mxCell>
        <mxCell id="8uQmm8RbdF-t_dj4djGj-9" value="&lt;font style=&quot;font-size: 14px;&quot;&gt;Behavior&lt;/font&gt;" style="text;html=1;align=center;verticalAlign=middle;whiteSpace=wrap;rounded=0;" parent="1" vertex="1">
          <mxGeometry x="-1005" y="520" width="60" height="30" as="geometry" />
        </mxCell>
        <mxCell id="8uQmm8RbdF-t_dj4djGj-10" value="Closest Enemy" style="rounded=1;whiteSpace=wrap;html=1;fillColor=#1ba1e2;fontColor=#ffffff;strokeColor=#006EAF;" parent="1" vertex="1">
          <mxGeometry x="-1120" y="545" width="90" height="25" as="geometry" />
        </mxCell>
        <mxCell id="8uQmm8RbdF-t_dj4djGj-11" value="Farthest Enemy" style="rounded=1;whiteSpace=wrap;html=1;fillColor=#1ba1e2;fontColor=#ffffff;strokeColor=#006EAF;" parent="1" vertex="1">
          <mxGeometry x="-1120" y="580" width="90" height="25" as="geometry" />
        </mxCell>
        <mxCell id="8uQmm8RbdF-t_dj4djGj-12" value="Closest To Castle" style="rounded=1;whiteSpace=wrap;html=1;fillColor=#1ba1e2;fontColor=#ffffff;strokeColor=#006EAF;" parent="1" vertex="1">
          <mxGeometry x="-1020" y="545" width="90" height="25" as="geometry" />
        </mxCell>
        <mxCell id="8uQmm8RbdF-t_dj4djGj-13" value="Round Robin" style="rounded=1;whiteSpace=wrap;html=1;fillColor=#1ba1e2;fontColor=#ffffff;strokeColor=#006EAF;" parent="1" vertex="1">
          <mxGeometry x="-920" y="545" width="90" height="25" as="geometry" />
        </mxCell>
        <mxCell id="8uQmm8RbdF-t_dj4djGj-14" value="Farthest From Castle" style="rounded=1;whiteSpace=wrap;html=1;fillColor=#1ba1e2;fontColor=#ffffff;strokeColor=#006EAF;" parent="1" vertex="1">
          <mxGeometry x="-1020" y="580" width="90" height="25" as="geometry" />
        </mxCell>
        <mxCell id="8uQmm8RbdF-t_dj4djGj-15" value="Current Attacker" style="rounded=1;whiteSpace=wrap;html=1;fillColor=#1ba1e2;fontColor=#ffffff;strokeColor=#006EAF;" parent="1" vertex="1">
          <mxGeometry x="-920" y="580" width="90" height="25" as="geometry" />
        </mxCell>
        <mxCell id="8uQmm8RbdF-t_dj4djGj-22" value="" style="rounded=1;whiteSpace=wrap;html=1;fillColor=#1ba1e2;fontColor=#ffffff;strokeColor=#006EAF;opacity=80;" parent="1" vertex="1">
          <mxGeometry x="-1390" y="545" width="200" height="60" as="geometry" />
        </mxCell>
        <mxCell id="8uQmm8RbdF-t_dj4djGj-23" value="Attack Radius:&lt;br&gt;Shoot Speed:&lt;br&gt;Health:&lt;br&gt;Damage:" style="text;html=1;align=left;verticalAlign=top;whiteSpace=wrap;rounded=0;" parent="1" vertex="1">
          <mxGeometry x="-1390" y="540" width="90" height="65" as="geometry" />
        </mxCell>
        <mxCell id="8uQmm8RbdF-t_dj4djGj-24" value="300 meters&lt;br&gt;1.0 seconds&lt;br&gt;10&lt;br&gt;2" style="text;html=1;align=right;verticalAlign=top;whiteSpace=wrap;rounded=0;" parent="1" vertex="1">
          <mxGeometry x="-1280" y="540" width="90" height="70" as="geometry" />
        </mxCell>
        <mxCell id="8uQmm8RbdF-t_dj4djGj-26" value="" style="rounded=1;whiteSpace=wrap;html=1;fillColor=#76608a;fontColor=#ffffff;strokeColor=default;opacity=50;rotation=-90;" parent="1" vertex="1">
          <mxGeometry x="-940" y="785" width="205" height="150" as="geometry" />
        </mxCell>
        <mxCell id="8uQmm8RbdF-t_dj4djGj-27" value="" style="triangle;whiteSpace=wrap;html=1;rotation=125;fillColor=#473a53;strokeColor=default;opacity=50;" parent="1" vertex="1">
          <mxGeometry x="-930" y="920" width="60" height="80" as="geometry" />
        </mxCell>
        <mxCell id="8uQmm8RbdF-t_dj4djGj-28" value="&lt;font style=&quot;font-size: 16px;&quot;&gt;&lt;b&gt;Placeable&#39;s Name&lt;/b&gt;&lt;/font&gt;" style="text;html=1;align=center;verticalAlign=middle;whiteSpace=wrap;rounded=0;" parent="1" vertex="1">
          <mxGeometry x="-908.0999999999999" y="770" width="138.25" height="30" as="geometry" />
        </mxCell>
        <mxCell id="8uQmm8RbdF-t_dj4djGj-29" value="&lt;font style=&quot;font-size: 14px;&quot;&gt;Stats&lt;/font&gt;" style="text;html=1;align=center;verticalAlign=middle;whiteSpace=wrap;rounded=0;" parent="1" vertex="1">
          <mxGeometry x="-905" y="790" width="60" height="30" as="geometry" />
        </mxCell>
        <mxCell id="8uQmm8RbdF-t_dj4djGj-30" value="" style="rounded=1;whiteSpace=wrap;html=1;fillColor=#1ba1e2;fontColor=#ffffff;strokeColor=#006EAF;" parent="1" vertex="1">
          <mxGeometry x="-911.63" y="815" width="80" height="125" as="geometry" />
        </mxCell>
        <mxCell id="8uQmm8RbdF-t_dj4djGj-31" value="Attack Radius&lt;br&gt;300&lt;br&gt;Shoot Speed: 1.0&lt;br&gt;Health&lt;br&gt;10&lt;br&gt;Damage&lt;br&gt;2" style="text;html=1;align=left;verticalAlign=top;whiteSpace=wrap;rounded=0;" parent="1" vertex="1">
          <mxGeometry x="-915.01" y="815" width="81.63" height="125" as="geometry" />
        </mxCell>
        <mxCell id="8uQmm8RbdF-t_dj4djGj-33" value="&lt;font style=&quot;font-size: 14px;&quot;&gt;Behavior&lt;/font&gt;" style="text;html=1;align=center;verticalAlign=middle;whiteSpace=wrap;rounded=0;" parent="1" vertex="1">
          <mxGeometry x="-833.38" y="790" width="60" height="30" as="geometry" />
        </mxCell>
        <mxCell id="8uQmm8RbdF-t_dj4djGj-34" value="Closest Enemy" style="rounded=1;whiteSpace=wrap;html=1;fillColor=#1ba1e2;fontColor=#ffffff;strokeColor=#006EAF;" parent="1" vertex="1">
          <mxGeometry x="-830" y="815" width="60" height="25" as="geometry" />
        </mxCell>
        <mxCell id="8uQmm8RbdF-t_dj4djGj-35" value="Farthest Enemy" style="rounded=1;whiteSpace=wrap;html=1;fillColor=#1ba1e2;fontColor=#ffffff;strokeColor=#006EAF;" parent="1" vertex="1">
          <mxGeometry x="-829.85" y="847.5" width="60" height="25" as="geometry" />
        </mxCell>
        <mxCell id="8uQmm8RbdF-t_dj4djGj-39" value="Closest To Castle" style="rounded=1;whiteSpace=wrap;html=1;fillColor=#1ba1e2;fontColor=#ffffff;strokeColor=#006EAF;" parent="1" vertex="1">
          <mxGeometry x="-830" y="880" width="60.15" height="22.5" as="geometry" />
        </mxCell>
        <mxCell id="8uQmm8RbdF-t_dj4djGj-41" value="Farthest To Castle" style="rounded=1;whiteSpace=wrap;html=1;fillColor=#1ba1e2;fontColor=#ffffff;strokeColor=#006EAF;" parent="1" vertex="1">
          <mxGeometry x="-830" y="912.5" width="60" height="22.5" as="geometry" />
        </mxCell>
        <mxCell id="8uQmm8RbdF-t_dj4djGj-42" value="No important room taken up on screen" style="shape=note;size=20;whiteSpace=wrap;html=1;strokeColor=#3333FF;" parent="1" vertex="1">
          <mxGeometry x="-690" y="240" width="100" height="100" as="geometry" />
        </mxCell>
        <mxCell id="8uQmm8RbdF-t_dj4djGj-43" value="Replaces the soul shop&#39;s area" style="shape=note;size=20;whiteSpace=wrap;html=1;strokeColor=#3333FF;" parent="1" vertex="1">
          <mxGeometry x="-550" y="240" width="100" height="100" as="geometry" />
        </mxCell>
        <mxCell id="8uQmm8RbdF-t_dj4djGj-44" value="" style="strokeWidth=2;html=1;shape=mxgraph.flowchart.annotation_2;align=left;labelPosition=right;pointerEvents=1;rotation=90;" parent="1" vertex="1">
          <mxGeometry x="-592.5" y="107.5" width="50" height="255" as="geometry" />
        </mxCell>
        <mxCell id="8uQmm8RbdF-t_dj4djGj-45" value="Pro" style="text;html=1;align=center;verticalAlign=middle;whiteSpace=wrap;rounded=0;" parent="1" vertex="1">
          <mxGeometry x="-670" y="200" width="60" height="30" as="geometry" />
        </mxCell>
        <mxCell id="8uQmm8RbdF-t_dj4djGj-46" value="Con" style="text;html=1;align=center;verticalAlign=middle;whiteSpace=wrap;rounded=0;" parent="1" vertex="1">
          <mxGeometry x="-530" y="200" width="60" height="30" as="geometry" />
        </mxCell>
        <mxCell id="8uQmm8RbdF-t_dj4djGj-47" value="Soul shop stays intact" style="shape=note;size=20;whiteSpace=wrap;html=1;strokeColor=#3333FF;" parent="1" vertex="1">
          <mxGeometry x="-710" y="932.5" width="100" height="100" as="geometry" />
        </mxCell>
        <mxCell id="8uQmm8RbdF-t_dj4djGj-48" value="Takes up important room on screen" style="shape=note;size=20;whiteSpace=wrap;html=1;strokeColor=#3333FF;" parent="1" vertex="1">
          <mxGeometry x="-570" y="932.5" width="100" height="100" as="geometry" />
        </mxCell>
        <mxCell id="8uQmm8RbdF-t_dj4djGj-49" value="" style="strokeWidth=2;html=1;shape=mxgraph.flowchart.annotation_2;align=left;labelPosition=right;pointerEvents=1;rotation=90;" parent="1" vertex="1">
          <mxGeometry x="-612.5" y="800" width="50" height="255" as="geometry" />
        </mxCell>
        <mxCell id="8uQmm8RbdF-t_dj4djGj-50" value="Pro" style="text;html=1;align=center;verticalAlign=middle;whiteSpace=wrap;rounded=0;" parent="1" vertex="1">
          <mxGeometry x="-690" y="892.5" width="60" height="30" as="geometry" />
        </mxCell>
        <mxCell id="8uQmm8RbdF-t_dj4djGj-51" value="Con" style="text;html=1;align=center;verticalAlign=middle;whiteSpace=wrap;rounded=0;" parent="1" vertex="1">
          <mxGeometry x="-550" y="892.5" width="60" height="30" as="geometry" />
        </mxCell>
        <mxCell id="8uQmm8RbdF-t_dj4djGj-52" value="Location of menu makes it easy for what the player clicked" style="shape=note;size=20;whiteSpace=wrap;html=1;strokeColor=#3333FF;" parent="1" vertex="1">
          <mxGeometry x="-710" y="1040" width="100" height="100" as="geometry" />
        </mxCell>
        <mxCell id="wKcf45MvlXt7j3aoN5BX-3" value="" style="endArrow=classic;html=1;rounded=0;entryX=1;entryY=1;entryDx=0;entryDy=0;exitX=0;exitY=0.5;exitDx=0;exitDy=0;exitPerimeter=0;strokeWidth=3;" parent="1" source="wKcf45MvlXt7j3aoN5BX-4" target="aYt2k320Q_-oUMQeYSeQ-13" edge="1">
          <mxGeometry width="50" height="50" relative="1" as="geometry">
            <mxPoint x="-680" y="570" as="sourcePoint" />
            <mxPoint x="-530" y="590" as="targetPoint" />
          </mxGeometry>
        </mxCell>
        <mxCell id="wKcf45MvlXt7j3aoN5BX-4" value="Placeable gets highlighted when clicked" style="shape=note;size=20;whiteSpace=wrap;html=1;strokeColor=#3333FF;" parent="1" vertex="1">
          <mxGeometry x="-692.5" y="442.5" width="100" height="100" as="geometry" />
        </mxCell>
        <mxCell id="Jq6tt30puawCw8pWf894-1" value="" style="whiteSpace=wrap;html=1;aspect=fixed;" parent="1" vertex="1">
          <mxGeometry x="-789.85" y="760" width="20" height="20" as="geometry" />
        </mxCell>
        <mxCell id="Jq6tt30puawCw8pWf894-2" value="" style="verticalLabelPosition=bottom;verticalAlign=top;html=1;shape=mxgraph.basic.x;fillColor=#a20025;fontColor=#ffffff;strokeColor=#6F0000;" parent="1" vertex="1">
          <mxGeometry x="-790" y="760" width="20" height="20" as="geometry" />
        </mxCell>
        <mxCell id="Jq6tt30puawCw8pWf894-3" value="" style="rounded=0;whiteSpace=wrap;html=1;" parent="1" vertex="1">
          <mxGeometry x="-1530" y="1330" width="800" height="600" as="geometry" />
        </mxCell>
        <mxCell id="Jq6tt30puawCw8pWf894-4" value="Castle" style="rounded=0;whiteSpace=wrap;html=1;fillColor=#647687;fontColor=#ffffff;strokeColor=#314354;" parent="1" vertex="1">
          <mxGeometry x="-1515" y="1820" width="770" height="40" as="geometry" />
        </mxCell>
        <mxCell id="Jq6tt30puawCw8pWf894-5" value="Player" style="ellipse;whiteSpace=wrap;html=1;aspect=fixed;fillColor=#008a00;fontColor=#ffffff;strokeColor=#005700;" parent="1" vertex="1">
          <mxGeometry x="-1170" y="1750" width="80" height="80" as="geometry" />
        </mxCell>
        <mxCell id="Jq6tt30puawCw8pWf894-6" value="Health Bar" style="rounded=0;whiteSpace=wrap;html=1;fillColor=#e51400;fontColor=#ffffff;strokeColor=#B20000;" parent="1" vertex="1">
          <mxGeometry x="-1290" y="1345" width="320" height="40" as="geometry" />
        </mxCell>
        <mxCell id="Jq6tt30puawCw8pWf894-7" value="Placeable" style="whiteSpace=wrap;html=1;aspect=fixed;fillColor=#0050ef;fontColor=#ffffff;strokeColor=#a8a7bc;strokeWidth=5;" parent="1" vertex="1">
          <mxGeometry x="-955" y="1590" width="80" height="80" as="geometry" />
        </mxCell>
        <mxCell id="Jq6tt30puawCw8pWf894-8" value="" style="image;html=1;image=img/lib/atlassian/Jira_Core_Logo.svg;" parent="1" vertex="1">
          <mxGeometry x="-985" y="1655" width="40" height="50" as="geometry" />
        </mxCell>
        <mxCell id="Jq6tt30puawCw8pWf894-11" value="" style="verticalLabelPosition=bottom;verticalAlign=top;html=1;shape=mxgraph.basic.cone2;dx=0.5;dy=0.82;rotation=-120;fillColor=#76608a;fontColor=#ffffff;strokeColor=#000000;opacity=50;" parent="1" vertex="1">
          <mxGeometry x="-880" y="1480" width="80" height="90" as="geometry" />
        </mxCell>
        <mxCell id="Jq6tt30puawCw8pWf894-12" value="" style="verticalLabelPosition=bottom;verticalAlign=top;html=1;shape=mxgraph.basic.cone2;dx=0.5;dy=0.82;rotation=-60;fillColor=#76608a;fontColor=#ffffff;strokeColor=#432D57;opacity=50;" parent="1" vertex="1">
          <mxGeometry x="-880" y="1520" width="80" height="90" as="geometry" />
        </mxCell>
        <mxCell id="Jq6tt30puawCw8pWf894-13" value="" style="verticalLabelPosition=bottom;verticalAlign=top;html=1;shape=mxgraph.basic.cone2;dx=0.5;dy=0.82;rotation=0;fillColor=#76608a;fontColor=#ffffff;strokeColor=#432D57;opacity=50;" parent="1" vertex="1">
          <mxGeometry x="-915.01" y="1540" width="80" height="90" as="geometry" />
        </mxCell>
        <mxCell id="Jq6tt30puawCw8pWf894-14" value="" style="verticalLabelPosition=bottom;verticalAlign=top;html=1;shape=mxgraph.basic.cone2;dx=0.5;dy=0.82;rotation=60;fillColor=#76608a;fontColor=#ffffff;strokeColor=#432D57;opacity=50;" parent="1" vertex="1">
          <mxGeometry x="-950" y="1520" width="80" height="90" as="geometry" />
        </mxCell>
        <mxCell id="Jq6tt30puawCw8pWf894-15" value="" style="verticalLabelPosition=bottom;verticalAlign=top;html=1;shape=mxgraph.basic.cone2;dx=0.5;dy=0.82;rotation=120;fillColor=#76608a;fontColor=#ffffff;strokeColor=#432D57;opacity=50;" parent="1" vertex="1">
          <mxGeometry x="-950" y="1480" width="80" height="90" as="geometry" />
        </mxCell>
        <mxCell id="Jq6tt30puawCw8pWf894-16" value="" style="verticalLabelPosition=bottom;verticalAlign=top;html=1;shape=mxgraph.basic.cone2;dx=0.5;dy=0.82;rotation=-180;fillColor=#76608a;fontColor=#ffffff;strokeColor=#432D57;opacity=50;" parent="1" vertex="1">
          <mxGeometry x="-915.01" y="1460" width="80" height="90" as="geometry" />
        </mxCell>
        <mxCell id="Jq6tt30puawCw8pWf894-17" value="Closest&lt;br&gt;Enemy" style="text;html=1;align=center;verticalAlign=middle;whiteSpace=wrap;rounded=0;" parent="1" vertex="1">
          <mxGeometry x="-904" y="1470" width="60" height="30" as="geometry" />
        </mxCell>
        <mxCell id="Jq6tt30puawCw8pWf894-18" value="Farthest&lt;br&gt;Enemy" style="text;html=1;align=center;verticalAlign=middle;whiteSpace=wrap;rounded=0;" parent="1" vertex="1">
          <mxGeometry x="-860" y="1500" width="60" height="30" as="geometry" />
        </mxCell>
        <mxCell id="Jq6tt30puawCw8pWf894-19" value="Closest To Castle" style="text;html=1;align=center;verticalAlign=middle;whiteSpace=wrap;rounded=0;" parent="1" vertex="1">
          <mxGeometry x="-860" y="1550" width="60" height="30" as="geometry" />
        </mxCell>
        <mxCell id="Jq6tt30puawCw8pWf894-20" value="Furthest&lt;br&gt;From Castle" style="text;html=1;align=center;verticalAlign=middle;whiteSpace=wrap;rounded=0;" parent="1" vertex="1">
          <mxGeometry x="-901.63" y="1580" width="60" height="30" as="geometry" />
        </mxCell>
        <mxCell id="Jq6tt30puawCw8pWf894-21" value="Round Robin" style="text;html=1;align=center;verticalAlign=middle;whiteSpace=wrap;rounded=0;" parent="1" vertex="1">
          <mxGeometry x="-950" y="1550" width="60" height="30" as="geometry" />
        </mxCell>
        <mxCell id="Jq6tt30puawCw8pWf894-23" value="Current&lt;br&gt;Attacker" style="text;html=1;align=center;verticalAlign=middle;whiteSpace=wrap;rounded=0;" parent="1" vertex="1">
          <mxGeometry x="-950" y="1510" width="60" height="30" as="geometry" />
        </mxCell>
        <mxCell id="Jq6tt30puawCw8pWf894-24" value="" style="endArrow=classic;html=1;rounded=0;entryX=0;entryY=0.219;entryDx=0;entryDy=0;entryPerimeter=0;strokeWidth=4;" parent="1" target="Jq6tt30puawCw8pWf894-3" edge="1">
          <mxGeometry width="50" height="50" relative="1" as="geometry">
            <mxPoint x="-1700" y="790" as="sourcePoint" />
            <mxPoint x="-1590" y="1450" as="targetPoint" />
            <Array as="points">
              <mxPoint x="-1700" y="1460" />
            </Array>
          </mxGeometry>
        </mxCell>
      </root>
    </mxGraphModel>
  </diagram>
  <diagram id="dYw8z03dOF_yf1v0zPuy" name="UML">
    <mxGraphModel dx="989" dy="582" grid="1" gridSize="10" guides="1" tooltips="1" connect="1" arrows="1" fold="1" page="1" pageScale="1" pageWidth="850" pageHeight="1100" math="0" shadow="0">
      <root>
        <mxCell id="0" />
        <mxCell id="1" parent="0" />
        <mxCell id="0-4TjqVIA__A3HCKQ5k9-1" value="PlaceablesInfoWidget" style="swimlane;fontStyle=1;align=center;verticalAlign=top;childLayout=stackLayout;horizontal=1;startSize=26;horizontalStack=0;resizeParent=1;resizeParentMax=0;resizeLast=0;collapsible=1;marginBottom=0;whiteSpace=wrap;html=1;" vertex="1" parent="1">
          <mxGeometry x="308" y="20" width="235" height="210" as="geometry" />
        </mxCell>
        <mxCell id="0-4TjqVIA__A3HCKQ5k9-2" value="Placeable* Placeable" style="text;strokeColor=none;fillColor=none;align=left;verticalAlign=top;spacingLeft=4;spacingRight=4;overflow=hidden;rotatable=0;points=[[0,0.5],[1,0.5]];portConstraint=eastwest;whiteSpace=wrap;html=1;" vertex="1" parent="0-4TjqVIA__A3HCKQ5k9-1">
          <mxGeometry y="26" width="235" height="26" as="geometry" />
        </mxCell>
        <mxCell id="0-4TjqVIA__A3HCKQ5k9-3" value="" style="line;strokeWidth=1;fillColor=none;align=left;verticalAlign=middle;spacingTop=-1;spacingLeft=3;spacingRight=3;rotatable=0;labelPosition=right;points=[];portConstraint=eastwest;strokeColor=inherit;" vertex="1" parent="0-4TjqVIA__A3HCKQ5k9-1">
          <mxGeometry y="52" width="235" height="8" as="geometry" />
        </mxCell>
        <mxCell id="0-4TjqVIA__A3HCKQ5k9-4" value="SetCurrentPlaceable(Placeable*)&lt;br&gt;ChangeBehavior(PlaceableAI)&lt;br&gt;GetStats()" style="text;strokeColor=none;fillColor=none;align=left;verticalAlign=top;spacingLeft=4;spacingRight=4;overflow=hidden;rotatable=0;points=[[0,0.5],[1,0.5]];portConstraint=eastwest;whiteSpace=wrap;html=1;" vertex="1" parent="0-4TjqVIA__A3HCKQ5k9-1">
          <mxGeometry y="60" width="235" height="50" as="geometry" />
        </mxCell>
        <mxCell id="0-4TjqVIA__A3HCKQ5k9-5" value="" style="line;strokeWidth=1;fillColor=none;align=left;verticalAlign=middle;spacingTop=-1;spacingLeft=3;spacingRight=3;rotatable=0;labelPosition=right;points=[];portConstraint=eastwest;strokeColor=inherit;" vertex="1" parent="0-4TjqVIA__A3HCKQ5k9-1">
          <mxGeometry y="110" width="235" height="8" as="geometry" />
        </mxCell>
        <mxCell id="0-4TjqVIA__A3HCKQ5k9-6" value="&lt;b&gt;Blueprint Implementation&lt;/b&gt;" style="text;strokeColor=none;fillColor=none;align=center;verticalAlign=top;spacingLeft=4;spacingRight=4;overflow=hidden;rotatable=0;points=[[0,0.5],[1,0.5]];portConstraint=eastwest;whiteSpace=wrap;html=1;" vertex="1" parent="0-4TjqVIA__A3HCKQ5k9-1">
          <mxGeometry y="118" width="235" height="26" as="geometry" />
        </mxCell>
        <mxCell id="0-4TjqVIA__A3HCKQ5k9-7" value="Text for Placeable&#39;s name&lt;br&gt;Text for Placeable&#39;s stats&lt;br&gt;Buttons for choosing Placeable&#39;s behavior" style="text;strokeColor=none;fillColor=none;align=left;verticalAlign=top;spacingLeft=4;spacingRight=4;overflow=hidden;rotatable=0;points=[[0,0.5],[1,0.5]];portConstraint=eastwest;whiteSpace=wrap;html=1;" vertex="1" parent="0-4TjqVIA__A3HCKQ5k9-1">
          <mxGeometry y="144" width="235" height="66" as="geometry" />
        </mxCell>
      </root>
    </mxGraphModel>
  </diagram>
  <diagram id="g6X669U-lKJo_0WDf_gY" name="Final">
    <mxGraphModel dx="3984" dy="844" grid="1" gridSize="10" guides="1" tooltips="1" connect="1" arrows="1" fold="1" page="1" pageScale="1" pageWidth="850" pageHeight="1100" math="0" shadow="0">
      <root>
        <mxCell id="0" />
        <mxCell id="1" parent="0" />
        <mxCell id="s5bDdqf9lPFlo34fzYks-1" value="" style="rounded=0;whiteSpace=wrap;html=1;" vertex="1" parent="1">
          <mxGeometry x="-2525" y="15" width="800" height="600" as="geometry" />
        </mxCell>
        <mxCell id="s5bDdqf9lPFlo34fzYks-2" value="Castle" style="rounded=0;whiteSpace=wrap;html=1;fillColor=#647687;fontColor=#ffffff;strokeColor=#314354;" vertex="1" parent="1">
          <mxGeometry x="-2510" y="505" width="770" height="40" as="geometry" />
        </mxCell>
        <mxCell id="s5bDdqf9lPFlo34fzYks-3" value="Player" style="ellipse;whiteSpace=wrap;html=1;aspect=fixed;fillColor=#008a00;fontColor=#ffffff;strokeColor=#005700;" vertex="1" parent="1">
          <mxGeometry x="-2165" y="435" width="80" height="80" as="geometry" />
        </mxCell>
        <mxCell id="s5bDdqf9lPFlo34fzYks-4" value="Health Bar" style="rounded=0;whiteSpace=wrap;html=1;fillColor=#e51400;fontColor=#ffffff;strokeColor=#B20000;" vertex="1" parent="1">
          <mxGeometry x="-2285" y="30" width="320" height="40" as="geometry" />
        </mxCell>
        <mxCell id="s5bDdqf9lPFlo34fzYks-5" value="Placeable" style="whiteSpace=wrap;html=1;aspect=fixed;fillColor=#0050ef;fontColor=#ffffff;strokeColor=#001DBC;" vertex="1" parent="1">
          <mxGeometry x="-1950" y="275" width="80" height="80" as="geometry" />
        </mxCell>
        <mxCell id="s5bDdqf9lPFlo34fzYks-6" value="" style="image;html=1;image=img/lib/atlassian/Jira_Core_Logo.svg;" vertex="1" parent="1">
          <mxGeometry x="-1980" y="340" width="40" height="50" as="geometry" />
        </mxCell>
        <mxCell id="s5bDdqf9lPFlo34fzYks-7" value="Clicked on" style="text;html=1;align=center;verticalAlign=middle;whiteSpace=wrap;rounded=0;" vertex="1" parent="1">
          <mxGeometry x="-1660" y="275" width="60" height="30" as="geometry" />
        </mxCell>
        <mxCell id="bkKSIHS8guRQLsGKbrDp-1" value="" style="rounded=0;whiteSpace=wrap;html=1;" vertex="1" parent="1">
          <mxGeometry x="-1510" y="15" width="800" height="600" as="geometry" />
        </mxCell>
        <mxCell id="bkKSIHS8guRQLsGKbrDp-2" value="Castle" style="rounded=0;whiteSpace=wrap;html=1;fillColor=#647687;fontColor=#ffffff;strokeColor=#314354;" vertex="1" parent="1">
          <mxGeometry x="-1495" y="505" width="770" height="40" as="geometry" />
        </mxCell>
        <mxCell id="bkKSIHS8guRQLsGKbrDp-3" value="Player" style="ellipse;whiteSpace=wrap;html=1;aspect=fixed;fillColor=#008a00;fontColor=#ffffff;strokeColor=#005700;" vertex="1" parent="1">
          <mxGeometry x="-1150" y="435" width="80" height="80" as="geometry" />
        </mxCell>
        <mxCell id="bkKSIHS8guRQLsGKbrDp-4" value="Health Bar" style="rounded=0;whiteSpace=wrap;html=1;fillColor=#e51400;fontColor=#ffffff;strokeColor=#B20000;" vertex="1" parent="1">
          <mxGeometry x="-1270" y="30" width="320" height="40" as="geometry" />
        </mxCell>
        <mxCell id="bkKSIHS8guRQLsGKbrDp-5" value="Placeable" style="whiteSpace=wrap;html=1;aspect=fixed;fillColor=#0050ef;fontColor=#ffffff;strokeColor=#a8a7bc;strokeWidth=5;" vertex="1" parent="1">
          <mxGeometry x="-935" y="275" width="80" height="80" as="geometry" />
        </mxCell>
        <mxCell id="bkKSIHS8guRQLsGKbrDp-6" value="" style="image;html=1;image=img/lib/atlassian/Jira_Core_Logo.svg;" vertex="1" parent="1">
          <mxGeometry x="-965" y="340" width="40" height="50" as="geometry" />
        </mxCell>
        <mxCell id="bkKSIHS8guRQLsGKbrDp-7" value="" style="verticalLabelPosition=bottom;verticalAlign=top;html=1;shape=mxgraph.basic.cone2;dx=0.5;dy=0.82;rotation=-120;fillColor=#76608a;fontColor=#ffffff;strokeColor=#000000;opacity=50;" vertex="1" parent="1">
          <mxGeometry x="-850" y="215" width="80" height="90" as="geometry" />
        </mxCell>
        <mxCell id="bkKSIHS8guRQLsGKbrDp-8" value="" style="verticalLabelPosition=bottom;verticalAlign=top;html=1;shape=mxgraph.basic.cone2;dx=0.5;dy=0.82;rotation=-60;fillColor=#76608a;fontColor=#ffffff;strokeColor=#432D57;opacity=50;" vertex="1" parent="1">
          <mxGeometry x="-850" y="310" width="80" height="90" as="geometry" />
        </mxCell>
        <mxCell id="bkKSIHS8guRQLsGKbrDp-9" value="" style="verticalLabelPosition=bottom;verticalAlign=top;html=1;shape=mxgraph.basic.cone2;dx=0.5;dy=0.82;rotation=0;fillColor=#76608a;fontColor=#ffffff;strokeColor=#432D57;opacity=50;" vertex="1" parent="1">
          <mxGeometry x="-935" y="355" width="80" height="90" as="geometry" />
        </mxCell>
        <mxCell id="bkKSIHS8guRQLsGKbrDp-10" value="" style="verticalLabelPosition=bottom;verticalAlign=top;html=1;shape=mxgraph.basic.cone2;dx=0.5;dy=0.82;rotation=60;fillColor=#76608a;fontColor=#ffffff;strokeColor=#432D57;opacity=50;" vertex="1" parent="1">
          <mxGeometry x="-1010" y="310" width="80" height="90" as="geometry" />
        </mxCell>
        <mxCell id="bkKSIHS8guRQLsGKbrDp-11" value="" style="verticalLabelPosition=bottom;verticalAlign=top;html=1;shape=mxgraph.basic.cone2;dx=0.5;dy=0.82;rotation=120;fillColor=#76608a;fontColor=#ffffff;strokeColor=#432D57;opacity=50;" vertex="1" parent="1">
          <mxGeometry x="-1015" y="215" width="80" height="90" as="geometry" />
        </mxCell>
        <mxCell id="bkKSIHS8guRQLsGKbrDp-12" value="" style="verticalLabelPosition=bottom;verticalAlign=top;html=1;shape=mxgraph.basic.cone2;dx=0.5;dy=0.82;rotation=-180;fillColor=#76608a;fontColor=#ffffff;strokeColor=#432D57;opacity=50;" vertex="1" parent="1">
          <mxGeometry x="-930" y="170" width="80" height="90" as="geometry" />
        </mxCell>
        <mxCell id="bkKSIHS8guRQLsGKbrDp-13" value="Closest&lt;br&gt;Enemy" style="text;html=1;align=center;verticalAlign=middle;whiteSpace=wrap;rounded=0;" vertex="1" parent="1">
          <mxGeometry x="-918.99" y="180" width="60" height="30" as="geometry" />
        </mxCell>
        <mxCell id="bkKSIHS8guRQLsGKbrDp-14" value="Farthest&lt;br&gt;Enemy" style="text;html=1;align=center;verticalAlign=middle;whiteSpace=wrap;rounded=0;" vertex="1" parent="1">
          <mxGeometry x="-830" y="235" width="60" height="30" as="geometry" />
        </mxCell>
        <mxCell id="bkKSIHS8guRQLsGKbrDp-15" value="Closest To Castle" style="text;html=1;align=center;verticalAlign=middle;whiteSpace=wrap;rounded=0;" vertex="1" parent="1">
          <mxGeometry x="-830" y="340" width="60" height="30" as="geometry" />
        </mxCell>
        <mxCell id="bkKSIHS8guRQLsGKbrDp-16" value="Furthest&lt;br&gt;From Castle" style="text;html=1;align=center;verticalAlign=middle;whiteSpace=wrap;rounded=0;" vertex="1" parent="1">
          <mxGeometry x="-921.62" y="395" width="60" height="30" as="geometry" />
        </mxCell>
        <mxCell id="bkKSIHS8guRQLsGKbrDp-17" value="Round Robin" style="text;html=1;align=center;verticalAlign=middle;whiteSpace=wrap;rounded=0;" vertex="1" parent="1">
          <mxGeometry x="-1010" y="340" width="60" height="30" as="geometry" />
        </mxCell>
        <mxCell id="bkKSIHS8guRQLsGKbrDp-18" value="Current&lt;br&gt;Attacker" style="text;html=1;align=center;verticalAlign=middle;whiteSpace=wrap;rounded=0;" vertex="1" parent="1">
          <mxGeometry x="-1015" y="245" width="60" height="30" as="geometry" />
        </mxCell>
        <mxCell id="bkKSIHS8guRQLsGKbrDp-19" value="" style="endArrow=classic;html=1;rounded=0;exitX=1;exitY=0.5;exitDx=0;exitDy=0;entryX=0;entryY=0.5;entryDx=0;entryDy=0;strokeWidth=4;" edge="1" parent="1" source="s5bDdqf9lPFlo34fzYks-5" target="bkKSIHS8guRQLsGKbrDp-1">
          <mxGeometry width="50" height="50" relative="1" as="geometry">
            <mxPoint x="-1720" y="320" as="sourcePoint" />
            <mxPoint x="-1670" y="270" as="targetPoint" />
          </mxGeometry>
        </mxCell>
        <mxCell id="bkKSIHS8guRQLsGKbrDp-20" value="" style="endArrow=classic;html=1;rounded=0;strokeWidth=3;" edge="1" parent="1">
          <mxGeometry width="50" height="50" relative="1" as="geometry">
            <mxPoint x="-1640" y="320" as="sourcePoint" />
            <mxPoint x="-1520" y="880" as="targetPoint" />
            <Array as="points">
              <mxPoint x="-1630" y="880" />
            </Array>
          </mxGeometry>
        </mxCell>
        <mxCell id="XQ3eVj7aUipKp6VAkU0e-1" value="" style="rounded=0;whiteSpace=wrap;html=1;" vertex="1" parent="1">
          <mxGeometry x="-1520" y="670" width="800" height="600" as="geometry" />
        </mxCell>
        <mxCell id="XQ3eVj7aUipKp6VAkU0e-2" value="Castle" style="rounded=0;whiteSpace=wrap;html=1;fillColor=#647687;fontColor=#ffffff;strokeColor=#314354;" vertex="1" parent="1">
          <mxGeometry x="-1505" y="1160" width="770" height="40" as="geometry" />
        </mxCell>
        <mxCell id="XQ3eVj7aUipKp6VAkU0e-3" value="Placeable" style="whiteSpace=wrap;html=1;aspect=fixed;fillColor=#0050ef;fontColor=#ffffff;strokeColor=#A8A7BC;strokeWidth=4;" vertex="1" parent="1">
          <mxGeometry x="-950" y="930" width="80" height="80" as="geometry" />
        </mxCell>
        <mxCell id="XQ3eVj7aUipKp6VAkU0e-4" value="Player" style="ellipse;whiteSpace=wrap;html=1;aspect=fixed;fillColor=#008a00;fontColor=#ffffff;strokeColor=#005700;" vertex="1" parent="1">
          <mxGeometry x="-1160" y="1090" width="80" height="80" as="geometry" />
        </mxCell>
        <mxCell id="XQ3eVj7aUipKp6VAkU0e-5" value="Health Bar" style="rounded=0;whiteSpace=wrap;html=1;fillColor=#e51400;fontColor=#ffffff;strokeColor=#B20000;" vertex="1" parent="1">
          <mxGeometry x="-1280" y="685" width="320" height="40" as="geometry" />
        </mxCell>
        <mxCell id="XQ3eVj7aUipKp6VAkU0e-6" value="" style="image;html=1;image=img/lib/atlassian/Jira_Core_Logo.svg;" vertex="1" parent="1">
          <mxGeometry x="-975" y="995" width="40" height="50" as="geometry" />
        </mxCell>
        <mxCell id="XQ3eVj7aUipKp6VAkU0e-7" value="" style="rounded=1;whiteSpace=wrap;html=1;fillColor=#76608a;fontColor=#ffffff;strokeColor=default;opacity=50;rotation=-90;" vertex="1" parent="1">
          <mxGeometry x="-930" y="775" width="205" height="150" as="geometry" />
        </mxCell>
        <mxCell id="XQ3eVj7aUipKp6VAkU0e-8" value="" style="triangle;whiteSpace=wrap;html=1;rotation=125;fillColor=#473a53;strokeColor=default;opacity=50;" vertex="1" parent="1">
          <mxGeometry x="-920" y="910" width="60" height="80" as="geometry" />
        </mxCell>
        <mxCell id="XQ3eVj7aUipKp6VAkU0e-9" value="&lt;font style=&quot;font-size: 16px;&quot;&gt;&lt;b&gt;Placeable&#39;s Name&lt;/b&gt;&lt;/font&gt;" style="text;html=1;align=center;verticalAlign=middle;whiteSpace=wrap;rounded=0;" vertex="1" parent="1">
          <mxGeometry x="-898.0999999999999" y="760" width="138.25" height="30" as="geometry" />
        </mxCell>
        <mxCell id="XQ3eVj7aUipKp6VAkU0e-10" value="&lt;font style=&quot;font-size: 14px;&quot;&gt;Stats&lt;/font&gt;" style="text;html=1;align=center;verticalAlign=middle;whiteSpace=wrap;rounded=0;" vertex="1" parent="1">
          <mxGeometry x="-895" y="780" width="60" height="30" as="geometry" />
        </mxCell>
        <mxCell id="XQ3eVj7aUipKp6VAkU0e-11" value="" style="rounded=1;whiteSpace=wrap;html=1;fillColor=#1ba1e2;fontColor=#ffffff;strokeColor=#006EAF;" vertex="1" parent="1">
          <mxGeometry x="-901.63" y="805" width="80" height="125" as="geometry" />
        </mxCell>
        <mxCell id="XQ3eVj7aUipKp6VAkU0e-12" value="Attack Radius&lt;br&gt;300&lt;br&gt;Shoot Speed: 1.0&lt;br&gt;Health&lt;br&gt;10&lt;br&gt;Damage&lt;br&gt;2" style="text;html=1;align=left;verticalAlign=top;whiteSpace=wrap;rounded=0;" vertex="1" parent="1">
          <mxGeometry x="-905.01" y="805" width="81.63" height="125" as="geometry" />
        </mxCell>
        <mxCell id="XQ3eVj7aUipKp6VAkU0e-13" value="&lt;font style=&quot;font-size: 14px;&quot;&gt;Behavior&lt;/font&gt;" style="text;html=1;align=center;verticalAlign=middle;whiteSpace=wrap;rounded=0;" vertex="1" parent="1">
          <mxGeometry x="-823.38" y="780" width="60" height="30" as="geometry" />
        </mxCell>
        <mxCell id="XQ3eVj7aUipKp6VAkU0e-14" value="Closest Enemy" style="rounded=1;whiteSpace=wrap;html=1;fillColor=#1ba1e2;fontColor=#ffffff;strokeColor=#006EAF;" vertex="1" parent="1">
          <mxGeometry x="-820" y="805" width="60" height="25" as="geometry" />
        </mxCell>
        <mxCell id="XQ3eVj7aUipKp6VAkU0e-15" value="Farthest Enemy" style="rounded=1;whiteSpace=wrap;html=1;fillColor=#1ba1e2;fontColor=#ffffff;strokeColor=#006EAF;" vertex="1" parent="1">
          <mxGeometry x="-819.85" y="837.5" width="60" height="25" as="geometry" />
        </mxCell>
        <mxCell id="XQ3eVj7aUipKp6VAkU0e-16" value="Closest To Castle" style="rounded=1;whiteSpace=wrap;html=1;fillColor=#1ba1e2;fontColor=#ffffff;strokeColor=#006EAF;" vertex="1" parent="1">
          <mxGeometry x="-820" y="870" width="60.15" height="22.5" as="geometry" />
        </mxCell>
        <mxCell id="XQ3eVj7aUipKp6VAkU0e-17" value="Farthest To Castle" style="rounded=1;whiteSpace=wrap;html=1;fillColor=#1ba1e2;fontColor=#ffffff;strokeColor=#006EAF;" vertex="1" parent="1">
          <mxGeometry x="-820" y="902.5" width="60" height="22.5" as="geometry" />
        </mxCell>
        <mxCell id="XQ3eVj7aUipKp6VAkU0e-18" value="" style="whiteSpace=wrap;html=1;aspect=fixed;" vertex="1" parent="1">
          <mxGeometry x="-779.85" y="750" width="20" height="20" as="geometry" />
        </mxCell>
        <mxCell id="XQ3eVj7aUipKp6VAkU0e-19" value="" style="verticalLabelPosition=bottom;verticalAlign=top;html=1;shape=mxgraph.basic.x;fillColor=#a20025;fontColor=#ffffff;strokeColor=#6F0000;" vertex="1" parent="1">
          <mxGeometry x="-780" y="750" width="20" height="20" as="geometry" />
        </mxCell>
        <mxCell id="XQ3eVj7aUipKp6VAkU0e-20" value="Clicked on placeable if post-wave" style="text;html=1;align=center;verticalAlign=middle;whiteSpace=wrap;rounded=0;" vertex="1" parent="1">
          <mxGeometry x="-1630" y="883" width="80" height="47" as="geometry" />
        </mxCell>
      </root>
    </mxGraphModel>
  </diagram>
</mxfile>
